<svg width="390" height="80" viewBox="0 0 390 80" fill="none" xmlns="http://www.w3.org/2000/svg">
<rect x="24" y="32" width="97" height="16" fill="#49AF9E"/>
<path fill-rule="evenodd" clip-rule="evenodd" d="M178 0C168.611 0 161 7.69954 161 17.1974V51.5922C161 60.6454 167.915 68.0647 176.694 68.7396L174.635 74.4599C173.865 76.6019 174.957 78.9703 177.074 79.75C179.191 80.5296 181.533 79.4252 182.303 77.2831L185.094 69.5262C185.182 69.2827 185.245 69.0363 185.286 68.7896H205.087C205.125 68.9606 205.175 69.1312 205.235 69.3003L208.026 77.0572C208.797 79.1992 211.138 80.3037 213.256 79.524C215.373 78.7444 216.465 76.3759 215.694 74.2339L213.705 68.7042C222.293 67.8392 229 60.508 229 51.5922V17.1974C229 7.69954 221.389 0 212 0H178ZM183.44 11.0063C177.807 11.0063 173.24 15.6261 173.24 21.3248V33.7069C173.24 39.4056 177.807 44.0253 183.44 44.0253H206.56C212.193 44.0253 216.76 39.4056 216.76 33.7069V21.3248C216.76 15.6261 212.193 11.0063 206.56 11.0063H183.44ZM182.76 52.968C182.76 55.6274 180.629 57.7833 178 57.7833C175.371 57.7833 173.24 55.6274 173.24 52.968C173.24 50.3086 175.371 48.1527 178 48.1527C180.629 48.1527 182.76 50.3086 182.76 52.968ZM212 57.7833C214.629 57.7833 216.76 55.6274 216.76 52.968C216.76 50.3086 214.629 48.1527 212 48.1527C209.371 48.1527 207.24 50.3086 207.24 52.968C207.24 55.6274 209.371 57.7833 212 57.7833Z" fill="#49AF9E"/>
<rect x="269" y="32" width="97" height="16" fill="#49AF9E"/>
</svg>
