<svg width="32" height="32" viewBox="0 0 32 32" fill="none" xmlns="http://www.w3.org/2000/svg">
<path d="M2.66667 16.0001C2.66667 8.63628 8.63621 2.66675 16 2.66675C23.3638 2.66675 29.3333 8.63628 29.3333 16.0001C29.3333 23.3639 23.3638 29.3334 16 29.3334C8.63621 29.3334 2.66667 23.3639 2.66667 16.0001Z" fill="#4AA457" fill-opacity="0.1"/>
<circle cx="16" cy="12.0001" r="5.33333" fill="#49AF9E"/>
<path fill-rule="evenodd" clip-rule="evenodd" d="M25.2649 25.3307C25.3221 25.4276 25.3044 25.5508 25.2231 25.6286C22.8282 27.9233 19.5787 29.3332 16 29.3332C12.4231 29.3332 9.17523 27.9248 6.78064 25.6322C6.69935 25.5544 6.68162 25.4313 6.73871 25.3343C8.44628 22.4336 11.9536 20.4443 16.0029 20.4443C20.0505 20.4443 23.5566 22.432 25.2649 25.3307Z" fill="#49AF9E"/>
</svg>
